REM DIRINDEX 1\2\5,1\2\6,1\2\7,1\2\8,1\3\9,1\3\10,1\3\11,1\4\12,1\4\13,1\4\14,1\4\15,1\4\16
REM DIRNAME cjc034,folder01,folder02,folder03,folder04,folder05,folder06,folder07,folder08,folder09,folder10,folder11,folder12,folder13,folder14,folder15
TITLE ""
FILE "1200_2_sec04_1317_1330.mp3" MP3
  TRACK 01 AUDIO
    TITLE "0:"
    INDEX 01 00:00:00
  TRACK 02 AUDIO
    TITLE "10:cjc034_02729"
    INDEX 01 00:00:13
  TRACK 03 AUDIO
    TITLE "0:"
    INDEX 01 00:01:21
  TRACK 04 AUDIO
    TITLE "9:cjc034_02730"
    INDEX 01 00:01:26
  TRACK 05 AUDIO
    TITLE "0:"
    INDEX 01 00:02:53
  TRACK 06 AUDIO
    TITLE "10:cjc034_02731"
    INDEX 01 00:03:33
  TRACK 07 AUDIO
    TITLE "0:"
    INDEX 01 00:04:48
  TRACK 08 AUDIO
    TITLE "9:cjc034_02732"
    INDEX 01 00:04:52
  TRACK 09 AUDIO
    TITLE "0:"
    INDEX 01 00:06:02
  TRACK 10 AUDIO
    TITLE "10:cjc034_02733"
    INDEX 01 00:06:61
  TRACK 11 AUDIO
    TITLE "0:"
    INDEX 01 00:09:63
  TRACK 12 AUDIO
    TITLE "9:cjc034_02734"
    INDEX 01 00:09:65
  TRACK 13 AUDIO
    TITLE "0:"
    INDEX 01 00:10:63
  TRACK 14 AUDIO
    TITLE "10:cjc034_02735"
    INDEX 01 00:11:48
  TRACK 15 AUDIO
    TITLE "0:"
    INDEX 01 00:12:63
  TRACK 16 AUDIO
    TITLE "9:cjc034_02736"
    INDEX 01 00:12:65
  TRACK 17 AUDIO
    TITLE "0:"
    INDEX 01 00:14:13
  TRACK 18 AUDIO
    TITLE "10:cjc034_02737"
    INDEX 01 00:14:64
  TRACK 19 AUDIO
    TITLE "0:"
    INDEX 01 00:16:24
  TRACK 20 AUDIO
    TITLE "9:cjc034_02738"
    INDEX 01 00:16:28
  TRACK 21 AUDIO
    TITLE "0:"
    INDEX 01 00:17:29
  TRACK 22 AUDIO
    TITLE "11:cjc034_02739"
    INDEX 01 00:19:01
  TRACK 23 AUDIO
    TITLE "0:"
    INDEX 01 00:28:33
  TRACK 24 AUDIO
    TITLE "10:cjc034_02740"
    INDEX 01 00:29:42
  TRACK 25 AUDIO
    TITLE "0:"
    INDEX 01 00:32:21
  TRACK 26 AUDIO
    TITLE "9:cjc034_02741"
    INDEX 01 00:32:27
  TRACK 27 AUDIO
    TITLE "0:"
    INDEX 01 00:33:34
  TRACK 28 AUDIO
    TITLE "10:cjc034_02742"
    INDEX 01 00:34:18
  TRACK 29 AUDIO
    TITLE "0:"
    INDEX 01 00:35:33
  TRACK 30 AUDIO
    TITLE "9:cjc034_02743"
    INDEX 01 00:35:37
  TRACK 31 AUDIO
    TITLE "0:"
    INDEX 01 00:36:42
  TRACK 32 AUDIO
    TITLE "10:cjc034_02744"
    INDEX 01 00:37:24
  TRACK 33 AUDIO
    TITLE "0:"
    INDEX 01 00:39:47
  TRACK 34 AUDIO
    TITLE "9:cjc034_02745"
    INDEX 01 00:39:56
  TRACK 35 AUDIO
    TITLE "0:"
    INDEX 01 00:40:68
  TRACK 36 AUDIO
    TITLE "10:cjc034_02746"
    INDEX 01 00:41:53
  TRACK 37 AUDIO
    TITLE "0:"
    INDEX 01 00:42:70
  TRACK 38 AUDIO
    TITLE "9:cjc034_02747"
    INDEX 01 00:43:01
  TRACK 39 AUDIO
    TITLE "0:"
    INDEX 01 00:44:09
  TRACK 40 AUDIO
    TITLE "10:cjc034_02748"
    INDEX 01 00:44:69
  TRACK 41 AUDIO
    TITLE "0:"
    INDEX 01 00:47:09
  TRACK 42 AUDIO
    TITLE "9:cjc034_02749"
    INDEX 01 00:47:15
  TRACK 43 AUDIO
    TITLE "0:"
    INDEX 01 00:48:20
  TRACK 44 AUDIO
    TITLE "10:cjc034_02750"
    INDEX 01 00:53:02
  TRACK 45 AUDIO
    TITLE "0:"
    INDEX 01 00:55:22
  TRACK 46 AUDIO
    TITLE "9:cjc034_02751"
    INDEX 01 00:55:24
  TRACK 47 AUDIO
    TITLE "0:"
    INDEX 01 00:56:37
  TRACK 48 AUDIO
    TITLE "10:cjc034_02752"
    INDEX 01 01:01:11
  TRACK 49 AUDIO
    TITLE "0:"
    INDEX 01 01:03:24
  TRACK 50 AUDIO
    TITLE "9:cjc034_02753"
    INDEX 01 01:03:29
  TRACK 51 AUDIO
    TITLE "0:"
    INDEX 01 01:04:48
  TRACK 52 AUDIO
    TITLE "10:cjc034_02754"
    INDEX 01 01:09:18
  TRACK 53 AUDIO
    TITLE "0:"
    INDEX 01 01:10:41
  TRACK 54 AUDIO
    TITLE "9:cjc034_02755"
    INDEX 01 01:10:43
  TRACK 55 AUDIO
    TITLE "0:"
    INDEX 01 01:11:60
  TRACK 56 AUDIO
    TITLE "10:cjc034_02756"
    INDEX 01 01:12:42
  TRACK 57 AUDIO
    TITLE "0:"
    INDEX 01 01:13:63
  TRACK 58 AUDIO
    TITLE "9:cjc034_02757"
    INDEX 01 01:13:71
  TRACK 59 AUDIO
    TITLE "0:"
    INDEX 01 01:15:09
